<?xml version="1.0" encoding="UTF-8"?>
<svg id="Layer_1" data-name="Layer 1" xmlns="http://www.w3.org/2000/svg" viewBox="0 0 502.24 135.07">
  <defs>
    <style>
      .cls-1 {
        fill: #a855f7;
      }

      .cls-2 {
        fill: #1f2937;
      }
    </style>
  </defs>
  <path class="cls-2" d="M50.67,88.82v-52.88h-11.2v64.06h54.27v-11.18h-43.08Z"/>
  <path class="cls-2" d="M116.75,38.69c-1.33-2.2-2.9-3.62-5.38-3.62s-4.14,1.41-5.45,3.62l-23.44,39.02h12.58l15.88-26.87,14.27,23.97h-19.65l-5.28,9.07h30.31l9.61,16.12h13.47l-36.91-61.31Z"/>
  <path class="cls-2" d="M166.84,100v-24.32l-34.01-39.74h15.07l24.93,29.51,25.02-29.51h14.27l-34.1,39.74v24.32h-11.19Z"/>
  <path class="cls-2" d="M324.94,100l-16.21-17.8h-23.96v-9.87h26.7c8.02,0,12.25-4.58,12.25-12.86s-4.58-12.33-12.25-12.33h-34.89v52.86h-11.1V35.95h45.99c14.63,0,23.26,9.08,23.26,23.35,0,10.57-4.93,18.06-13.22,21.23l19.29,19.47h-15.86Z"/>
  <rect class="cls-2" x="216.97" y="62.38" width="29.34" height="11.19"/>
  <rect class="cls-2" x="216.97" y="88.81" width="40.2" height="11.19"/>
  <rect class="cls-2" x="216.97" y="35.95" width="40.2" height="11.19"/>
  <path class="cls-1" d="M369.53,99.15v-62.35h10.89v62.35h-10.89Z"/>
  <path class="cls-2" d="M450.46,99.15l-4.29-3.69c-4.29,2.32-9.35,3.69-14.84,3.69h-15.18c-17.41,0-30.27-13.72-30.27-31.82s12.86-30.53,30.27-30.53h15.18c18.01,0,30.53,12.44,30.53,30.53,0,9.09-3.26,17.07-8.66,22.73l11.75,9.09h-14.49ZM418.74,72.39h13.87l12.11,10.81c3.86-3.69,6.26-9.09,6.26-15.35,0-11.75-8.15-20.15-19.64-20.15h-15.18c-11.15,0-19.38,8.32-19.38,20.15s8.15,20.41,19.38,20.41h15.18c1.89,0,3.69-.26,5.4-.69l-18-15.18Z"/>
</svg>