<?xml version="1.0" encoding="UTF-8"?>
<svg id="Layer_1" data-name="Layer 1" xmlns="http://www.w3.org/2000/svg" viewBox="0 0 32 32">
  <defs>
    <style>
      .cls-1 {
        fill: #00aeef;
      }

      .cls-2 {
        fill: #1f2937;
      }

      .cls-3 {
        fill: #f1f2f2;
      }
    </style>
  </defs>
  <rect class="cls-2" x="-.01" width="32.02" height="32.29"/>
  <g>
    <path class="cls-1" d="M2.15,25.19V7.1h3.16v18.1h-3.16Z"/>
    <path class="cls-3" d="M25.64,25.19l-1.24-1.07c-1.24.67-2.71,1.07-4.31,1.07h-4.41c-5.05,0-8.79-3.98-8.79-9.23s3.73-8.86,8.79-8.86h4.41c5.23,0,8.86,3.61,8.86,8.86,0,2.64-.95,4.95-2.51,6.6l3.41,2.64h-4.21ZM16.43,17.43h4.02l3.52,3.14c1.12-1.07,1.82-2.64,1.82-4.46,0-3.41-2.36-5.85-5.7-5.85h-4.41c-3.24,0-5.63,2.41-5.63,5.85s2.36,5.92,5.63,5.92h4.41c.55,0,1.07-.07,1.57-.2l-5.23-4.41Z"/>
  </g>
</svg>