<?xml version="1.0" encoding="UTF-8"?>
<svg id="Layer_1" data-name="Layer 1" xmlns="http://www.w3.org/2000/svg" viewBox="0 0 32 32">
  <defs>
    <style>
      .cls-1 {
        fill: #f4f6fa;
      }

      .cls-2 {
        fill: #00aeef;
      }

      .cls-3 {
        fill: #1f2937;
      }

      .cls-4 {
        fill: #f1f2f2;
      }
    </style>
  </defs>
  <rect class="cls-3" x="-.41" y="-.41" width="32.83" height="32.83"/>
  <g>
    <g>
      <path class="cls-2" d="M16.42,20.41v-8.82h1.54v8.82h-1.54Z"/>
      <path class="cls-4" d="M27.87,20.41l-.61-.52c-.61.33-1.32.52-2.1.52h-2.15c-2.46,0-4.28-1.94-4.28-4.5s1.82-4.32,4.28-4.32h2.15c2.55,0,4.32,1.76,4.32,4.32,0,1.29-.46,2.41-1.23,3.21l1.66,1.29h-2.05ZM23.38,16.62h1.96l1.71,1.53c.55-.52.89-1.29.89-2.17,0-1.66-1.15-2.85-2.78-2.85h-2.15c-1.58,0-2.74,1.18-2.74,2.85s1.15,2.89,2.74,2.89h2.15c.27,0,.52-.04.76-.1l-2.55-2.15Z"/>
    </g>
    <path class="cls-1" d="M3.62,18.87v-7.28h-1.54v8.82h7.47v-1.54H3.62Z"/>
    <path class="cls-1" d="M10.43,20.41v-3.35l-4.24-5.47h1.88l3.11,4.06,3.12-4.06h1.78l-4.25,5.47v3.35h-1.39Z"/>
  </g>
</svg>